# 由 make_test_obj.py 生成的测试场景
mtllib testscene.mtl
v -6.000000 0.000000 -6.000000
v -4.500000 0.000000 -6.000000
v -3.000000 0.000000 -6.000000
v -1.500000 0.000000 -6.000000
v 0.000000 0.000000 -6.000000
v 1.500000 0.000000 -6.000000
v 3.000000 0.000000 -6.000000
v 4.500000 0.000000 -6.000000
v 6.000000 0.000000 -6.000000
v -6.000000 0.000000 -4.500000
v -4.500000 0.000000 -4.500000
v -3.000000 0.000000 -4.500000
v -1.500000 0.000000 -4.500000
v 0.000000 0.000000 -4.500000
v 1.500000 0.000000 -4.500000
v 3.000000 0.000000 -4.500000
v 4.500000 0.000000 -4.500000
v 6.000000 0.000000 -4.500000
v -6.000000 0.000000 -3.000000
v -4.500000 0.000000 -3.000000
v -3.000000 0.000000 -3.000000
v -1.500000 0.000000 -3.000000
v 0.000000 0.000000 -3.000000
v 1.500000 0.000000 -3.000000
v 3.000000 0.000000 -3.000000
v 4.500000 0.000000 -3.000000
v 6.000000 0.000000 -3.000000
v -6.000000 0.000000 -1.500000
v -4.500000 0.000000 -1.500000
v -3.000000 0.000000 -1.500000
v -1.500000 0.000000 -1.500000
v 0.000000 0.000000 -1.500000
v 1.500000 0.000000 -1.500000
v 3.000000 0.000000 -1.500000
v 4.500000 0.000000 -1.500000
v 6.000000 0.000000 -1.500000
v -6.000000 0.000000 0.000000
v -4.500000 0.000000 0.000000
v -3.000000 0.000000 0.000000
v -1.500000 0.000000 0.000000
v 0.000000 0.000000 0.000000
v 1.500000 0.000000 0.000000
v 3.000000 0.000000 0.000000
v 4.500000 0.000000 0.000000
v 6.000000 0.000000 0.000000
v -6.000000 0.000000 1.500000
v -4.500000 0.000000 1.500000
v -3.000000 0.000000 1.500000
v -1.500000 0.000000 1.500000
v 0.000000 0.000000 1.500000
v 1.500000 0.000000 1.500000
v 3.000000 0.000000 1.500000
v 4.500000 0.000000 1.500000
v 6.000000 0.000000 1.500000
v -6.000000 0.000000 3.000000
v -4.500000 0.000000 3.000000
v -3.000000 0.000000 3.000000
v -1.500000 0.000000 3.000000
v 0.000000 0.000000 3.000000
v 1.500000 0.000000 3.000000
v 3.000000 0.000000 3.000000
v 4.500000 0.000000 3.000000
v 6.000000 0.000000 3.000000
v -6.000000 0.000000 4.500000
v -4.500000 0.000000 4.500000
v -3.000000 0.000000 4.500000
v -1.500000 0.000000 4.500000
v 0.000000 0.000000 4.500000
v 1.500000 0.000000 4.500000
v 3.000000 0.000000 4.500000
v 4.500000 0.000000 4.500000
v 6.000000 0.000000 4.500000
v -6.000000 0.000000 6.000000
v -4.500000 0.000000 6.000000
v -3.000000 0.000000 6.000000
v -1.500000 0.000000 6.000000
v 0.000000 0.000000 6.000000
v 1.500000 0.000000 6.000000
v 3.000000 0.000000 6.000000
v 4.500000 0.000000 6.000000
v 6.000000 0.000000 6.000000
v -3.250000 0.000000 -0.750000
v -1.750000 0.000000 -0.750000
v -1.750000 1.500000 -0.750000
v -3.250000 1.500000 -0.750000
v -3.250000 0.000000 0.750000
v -1.750000 0.000000 0.750000
v -1.750000 1.500000 0.750000
v -3.250000 1.500000 0.750000
v -0.500000 0.000000 1.500000
v 0.500000 0.000000 1.500000
v 0.500000 1.000000 1.500000
v -0.500000 1.000000 1.500000
v -0.500000 0.000000 2.500000
v 0.500000 0.000000 2.500000
v 0.500000 1.000000 2.500000
v -0.500000 1.000000 2.500000
v 1.900000 0.000000 -1.600000
v 3.100000 0.000000 -1.600000
v 3.100000 2.000000 -1.600000
v 1.900000 2.000000 -1.600000
v 1.900000 0.000000 -0.400000
v 3.100000 0.000000 -0.400000
v 3.100000 2.000000 -0.400000
v 1.900000 2.000000 -0.400000
v -0.400000 0.000000 -2.900000
v 0.400000 0.000000 -2.900000
v 0.400000 3.200000 -2.900000
v -0.400000 3.200000 -2.900000
v -0.400000 0.000000 -2.100000
v 0.400000 0.000000 -2.100000
v 0.400000 3.200000 -2.100000
v -0.400000 3.200000 -2.100000
vt 0.000000 0.000000
vt 4.000000 0.000000
vt 8.000000 0.000000
vt 12.000000 0.000000
vt 16.000000 0.000000
vt 20.000000 0.000000
vt 24.000000 0.000000
vt 28.000000 0.000000
vt 32.000000 0.000000
vt 0.000000 4.000000
vt 4.000000 4.000000
vt 8.000000 4.000000
vt 12.000000 4.000000
vt 16.000000 4.000000
vt 20.000000 4.000000
vt 24.000000 4.000000
vt 28.000000 4.000000
vt 32.000000 4.000000
vt 0.000000 8.000000
vt 4.000000 8.000000
vt 8.000000 8.000000
vt 12.000000 8.000000
vt 16.000000 8.000000
vt 20.000000 8.000000
vt 24.000000 8.000000
vt 28.000000 8.000000
vt 32.000000 8.000000
vt 0.000000 12.000000
vt 4.000000 12.000000
vt 8.000000 12.000000
vt 12.000000 12.000000
vt 16.000000 12.000000
vt 20.000000 12.000000
vt 24.000000 12.000000
vt 28.000000 12.000000
vt 32.000000 12.000000
vt 0.000000 16.000000
vt 4.000000 16.000000
vt 8.000000 16.000000
vt 12.000000 16.000000
vt 16.000000 16.000000
vt 20.000000 16.000000
vt 24.000000 16.000000
vt 28.000000 16.000000
vt 32.000000 16.000000
vt 0.000000 20.000000
vt 4.000000 20.000000
vt 8.000000 20.000000
vt 12.000000 20.000000
vt 16.000000 20.000000
vt 20.000000 20.000000
vt 24.000000 20.000000
vt 28.000000 20.000000
vt 32.000000 20.000000
vt 0.000000 24.000000
vt 4.000000 24.000000
vt 8.000000 24.000000
vt 12.000000 24.000000
vt 16.000000 24.000000
vt 20.000000 24.000000
vt 24.000000 24.000000
vt 28.000000 24.000000
vt 32.000000 24.000000
vt 0.000000 28.000000
vt 4.000000 28.000000
vt 8.000000 28.000000
vt 12.000000 28.000000
vt 16.000000 28.000000
vt 20.000000 28.000000
vt 24.000000 28.000000
vt 28.000000 28.000000
vt 32.000000 28.000000
vt 0.000000 32.000000
vt 4.000000 32.000000
vt 8.000000 32.000000
vt 12.000000 32.000000
vt 16.000000 32.000000
vt 20.000000 32.000000
vt 24.000000 32.000000
vt 28.000000 32.000000
vt 32.000000 32.000000
vt 0.000000 0.000000
vt 1.000000 0.000000
vt 1.000000 1.000000
vt 0.000000 1.000000
vt 0.000000 0.000000
vt 1.000000 0.000000
vt 1.000000 1.000000
vt 0.000000 1.000000
vt 0.000000 0.000000
vt 1.000000 0.000000
vt 1.000000 1.000000
vt 0.000000 1.000000
vt 0.000000 0.000000
vt 1.000000 0.000000
vt 1.000000 1.000000
vt 0.000000 1.000000
vn 0.000000 1.000000 0.000000
vn 0.000000 0.000000 -1.000000
vn 0.000000 0.000000 1.000000
vn -1.000000 0.000000 0.000000
vn 1.000000 0.000000 0.000000
vn 0.000000 -1.000000 0.000000
vn 0.000000 1.000000 0.000000
vn 0.000000 0.000000 -1.000000
vn 0.000000 0.000000 1.000000
vn -1.000000 0.000000 0.000000
vn 1.000000 0.000000 0.000000
vn 0.000000 -1.000000 0.000000
vn 0.000000 1.000000 0.000000
vn 0.000000 0.000000 -1.000000
vn 0.000000 0.000000 1.000000
vn -1.000000 0.000000 0.000000
vn 1.000000 0.000000 0.000000
vn 0.000000 -1.000000 0.000000
vn 0.000000 1.000000 0.000000
vn 0.000000 0.000000 -1.000000
vn 0.000000 0.000000 1.000000
vn -1.000000 0.000000 0.000000
vn 1.000000 0.000000 0.000000
vn 0.000000 -1.000000 0.000000
vn 0.000000 1.000000 0.000000
g Ground
usemtl CheckerMat
f 1/1/1 10/10/1 11/11/1
f 1/1/1 11/11/1 2/2/1
f 2/2/1 11/11/1 12/12/1
f 2/2/1 12/12/1 3/3/1
f 3/3/1 12/12/1 13/13/1
f 3/3/1 13/13/1 4/4/1
f 4/4/1 13/13/1 14/14/1
f 4/4/1 14/14/1 5/5/1
f 5/5/1 14/14/1 15/15/1
f 5/5/1 15/15/1 6/6/1
f 6/6/1 15/15/1 16/16/1
f 6/6/1 16/16/1 7/7/1
f 7/7/1 16/16/1 17/17/1
f 7/7/1 17/17/1 8/8/1
f 8/8/1 17/17/1 18/18/1
f 8/8/1 18/18/1 9/9/1
f 10/10/1 19/19/1 20/20/1
f 10/10/1 20/20/1 11/11/1
f 11/11/1 20/20/1 21/21/1
f 11/11/1 21/21/1 12/12/1
f 12/12/1 21/21/1 22/22/1
f 12/12/1 22/22/1 13/13/1
f 13/13/1 22/22/1 23/23/1
f 13/13/1 23/23/1 14/14/1
f 14/14/1 23/23/1 24/24/1
f 14/14/1 24/24/1 15/15/1
f 15/15/1 24/24/1 25/25/1
f 15/15/1 25/25/1 16/16/1
f 16/16/1 25/25/1 26/26/1
f 16/16/1 26/26/1 17/17/1
f 17/17/1 26/26/1 27/27/1
f 17/17/1 27/27/1 18/18/1
f 19/19/1 28/28/1 29/29/1
f 19/19/1 29/29/1 20/20/1
f 20/20/1 29/29/1 30/30/1
f 20/20/1 30/30/1 21/21/1
f 21/21/1 30/30/1 31/31/1
f 21/21/1 31/31/1 22/22/1
f 22/22/1 31/31/1 32/32/1
f 22/22/1 32/32/1 23/23/1
f 23/23/1 32/32/1 33/33/1
f 23/23/1 33/33/1 24/24/1
f 24/24/1 33/33/1 34/34/1
f 24/24/1 34/34/1 25/25/1
f 25/25/1 34/34/1 35/35/1
f 25/25/1 35/35/1 26/26/1
f 26/26/1 35/35/1 36/36/1
f 26/26/1 36/36/1 27/27/1
f 28/28/1 37/37/1 38/38/1
f 28/28/1 38/38/1 29/29/1
f 29/29/1 38/38/1 39/39/1
f 29/29/1 39/39/1 30/30/1
f 30/30/1 39/39/1 40/40/1
f 30/30/1 40/40/1 31/31/1
f 31/31/1 40/40/1 41/41/1
f 31/31/1 41/41/1 32/32/1
f 32/32/1 41/41/1 42/42/1
f 32/32/1 42/42/1 33/33/1
f 33/33/1 42/42/1 43/43/1
f 33/33/1 43/43/1 34/34/1
f 34/34/1 43/43/1 44/44/1
f 34/34/1 44/44/1 35/35/1
f 35/35/1 44/44/1 45/45/1
f 35/35/1 45/45/1 36/36/1
f 37/37/1 46/46/1 47/47/1
f 37/37/1 47/47/1 38/38/1
f 38/38/1 47/47/1 48/48/1
f 38/38/1 48/48/1 39/39/1
f 39/39/1 48/48/1 49/49/1
f 39/39/1 49/49/1 40/40/1
f 40/40/1 49/49/1 50/50/1
f 40/40/1 50/50/1 41/41/1
f 41/41/1 50/50/1 51/51/1
f 41/41/1 51/51/1 42/42/1
f 42/42/1 51/51/1 52/52/1
f 42/42/1 52/52/1 43/43/1
f 43/43/1 52/52/1 53/53/1
f 43/43/1 53/53/1 44/44/1
f 44/44/1 53/53/1 54/54/1
f 44/44/1 54/54/1 45/45/1
f 46/46/1 55/55/1 56/56/1
f 46/46/1 56/56/1 47/47/1
f 47/47/1 56/56/1 57/57/1
f 47/47/1 57/57/1 48/48/1
f 48/48/1 57/57/1 58/58/1
f 48/48/1 58/58/1 49/49/1
f 49/49/1 58/58/1 59/59/1
f 49/49/1 59/59/1 50/50/1
f 50/50/1 59/59/1 60/60/1
f 50/50/1 60/60/1 51/51/1
f 51/51/1 60/60/1 61/61/1
f 51/51/1 61/61/1 52/52/1
f 52/52/1 61/61/1 62/62/1
f 52/52/1 62/62/1 53/53/1
f 53/53/1 62/62/1 63/63/1
f 53/53/1 63/63/1 54/54/1
f 55/55/1 64/64/1 65/65/1
f 55/55/1 65/65/1 56/56/1
f 56/56/1 65/65/1 66/66/1
f 56/56/1 66/66/1 57/57/1
f 57/57/1 66/66/1 67/67/1
f 57/57/1 67/67/1 58/58/1
f 58/58/1 67/67/1 68/68/1
f 58/58/1 68/68/1 59/59/1
f 59/59/1 68/68/1 69/69/1
f 59/59/1 69/69/1 60/60/1
f 60/60/1 69/69/1 70/70/1
f 60/60/1 70/70/1 61/61/1
f 61/61/1 70/70/1 71/71/1
f 61/61/1 71/71/1 62/62/1
f 62/62/1 71/71/1 72/72/1
f 62/62/1 72/72/1 63/63/1
f 64/64/1 73/73/1 74/74/1
f 64/64/1 74/74/1 65/65/1
f 65/65/1 74/74/1 75/75/1
f 65/65/1 75/75/1 66/66/1
f 66/66/1 75/75/1 76/76/1
f 66/66/1 76/76/1 67/67/1
f 67/67/1 76/76/1 77/77/1
f 67/67/1 77/77/1 68/68/1
f 68/68/1 77/77/1 78/78/1
f 68/68/1 78/78/1 69/69/1
f 69/69/1 78/78/1 79/79/1
f 69/69/1 79/79/1 70/70/1
f 70/70/1 79/79/1 80/80/1
f 70/70/1 80/80/1 71/71/1
f 71/71/1 80/80/1 81/81/1
f 71/71/1 81/81/1 72/72/1
g BoxA
usemtl StripeMat
f 82/82/2 85/83/2 84/84/2
f 82/82/2 84/84/2 83/85/2
f 86/82/3 87/83/3 88/84/3
f 86/82/3 88/84/3 89/85/3
f 82/82/4 86/83/4 89/84/4
f 82/82/4 89/84/4 85/85/4
f 83/82/5 84/83/5 88/84/5
f 83/82/5 88/84/5 87/85/5
f 82/82/6 83/83/6 87/84/6
f 82/82/6 87/84/6 86/85/6
f 85/82/7 89/83/7 88/84/7
f 85/82/7 88/84/7 84/85/7
g BoxB
usemtl PlainRed
f 90/86/8 93/87/8 92/88/8
f 90/86/8 92/88/8 91/89/8
f 94/86/9 95/87/9 96/88/9
f 94/86/9 96/88/9 97/89/9
f 90/86/10 94/87/10 97/88/10
f 90/86/10 97/88/10 93/89/10
f 91/86/11 92/87/11 96/88/11
f 91/86/11 96/88/11 95/89/11
f 90/86/12 91/87/12 95/88/12
f 90/86/12 95/88/12 94/89/12
f 93/86/13 97/87/13 96/88/13
f 93/86/13 96/88/13 92/89/13
g BoxC
usemtl PlainGreen
f 98/90/14 101/91/14 100/92/14
f 98/90/14 100/92/14 99/93/14
f 102/90/15 103/91/15 104/92/15
f 102/90/15 104/92/15 105/93/15
f 98/90/16 102/91/16 105/92/16
f 98/90/16 105/92/16 101/93/16
f 99/90/17 100/91/17 104/92/17
f 99/90/17 104/92/17 103/93/17
f 98/90/18 99/91/18 103/92/18
f 98/90/18 103/92/18 102/93/18
f 101/90/19 105/91/19 104/92/19
f 101/90/19 104/92/19 100/93/19
g BoxD
usemtl StripeMat
f 106/94/20 109/95/20 108/96/20
f 106/94/20 108/96/20 107/97/20
f 110/94/21 111/95/21 112/96/21
f 110/94/21 112/96/21 113/97/21
f 106/94/22 110/95/22 113/96/22
f 106/94/22 113/96/22 109/97/22
f 107/94/23 108/95/23 112/96/23
f 107/94/23 112/96/23 111/97/23
f 106/94/24 107/95/24 111/96/24
f 106/94/24 111/96/24 110/97/24
f 109/94/25 113/95/25 112/96/25
f 109/94/25 112/96/25 108/97/25
